<svg xmlns="http://www.w3.org/2000/svg" version="1.1" width="1366px" height="768px" style="shape-rendering:geometricPrecision; text-rendering:geometricPrecision; image-rendering:optimizeQuality; fill-rule:evenodd; clip-rule:evenodd" fill="#0e75b5">
    <g><path style="opacity:0.996" d="M 519.5,47.5 C 673.966,202.132 828.299,356.966 982.5,512C 828.167,512.5 673.834,512.667 519.5,512.5C 519.5,357.5 519.5,202.5 519.5,47.5 Z"/></g>
    <g><path style="opacity:0.988" d="M 87.5,139.5 C 212.167,139.5 336.833,139.5 461.5,139.5C 461.667,263.834 461.5,388.167 461,512.5C 336.667,388.833 212.333,265.167 88,141.5C 87.5357,140.906 87.369,140.239 87.5,139.5 Z"/></g>
    <g><path style="opacity:0.995" d="M 693.5,140.5 C 887.666,139.5 1082,139.167 1276.5,139.5C 1276.83,332.834 1276.5,526.168 1275.5,719.5C 1081.48,526.479 887.479,333.479 693.5,140.5 Z"/></g>
</svg>
