<svg xmlns="http://www.w3.org/2000/svg" viewBox="0 0 798.2 228.5" width="798.2" height="228.5">
  <g>
    <path d="M 675.3 0.1 L 595.5 0.1 L 568.6 82.8 L 566 0.1 L 499.3 0.1 L 476 71.1 L 452.6 0.1 L 385.5 0.1 L 384.2 42.7 C 382.7 33.7 379.3 25.1 373.4 18 C 363 4.2 347.5 0.8 338.7 0 C 336.8 -0.2 334.7 0 331.8 0 L 232.2 0 L 232.2 80.5 L 206.2 0.1 L 126.3 0.1 L 94.3 97.9 L 19.3 98 L 33.9 134.4 L 82.5 134.4 L 76.6 152.7 L 137.3 152.7 L 166.2 42.3 L 180.9 98 L 160.3 98 L 152.7 133.5 L 190.1 133.5 L 195.1 152.6 L 290.8 152.6 L 289.8 118 L 309.7 118 L 328.1 152.6 L 441.2 152.6 L 439.1 80 L 462.5 152.6 L 489.1 152.6 L 512.5 80.1 L 510.3 152.6 L 606.5 152.6 L 635.4 42.7 L 650 98.5 L 629.5 98.5 L 621.9 134 L 659.3 134 L 664.3 152.7 L 725 152.7 L 719 134.3 L 765.4 134.3 L 779.7 98.6 L 707.3 98.5 L 675.3 0.1 Z M 286.7 73.7 L 285.8 39.7 L 316.7 39.7 C 318.6 39.7 320.5 39.9 322.3 40.4 C 329.4 42.7 331.9 49 331.9 56.3 C 331.9 64.6 329.1 71.7 320.3 73.5 C 319.1 73.7 317.8 73.8 316.5 73.8 L 286.7 73.7 Z M 362.9 103.8 C 367.7 99.8 372 95.2 375.5 90 C 379 84.7 381.6 78.9 383.2 72.7 C 383.3 72.1 383.5 71.6 383.6 71 L 381.8 130.9 L 362.9 103.8 Z"/>
    <path d="M702.7,53.6l11.7,35.7h68.4l15.4-35.7C798.2,53.6,702.7,53.6,702.7,53.6z M98.5,53.6H3l15.4,35.7h68.4 C86.8,89.2,98.5,53.6,98.5,53.6z"/>
    <path d="M 10.181 196.159 Q 9.082 196.159 8.1 195.728 Q 7.119 195.296 6.386 194.576 Q 5.653 193.856 5.234 192.875 Q 4.816 191.893 4.816 190.794 L 4.816 180.064 Q 4.816 178.965 5.234 177.983 Q 5.653 177.002 6.386 176.282 Q 7.119 175.562 8.1 175.13 Q 9.082 174.699 10.181 174.699 L 28.396 174.699 Q 29.496 174.699 30.477 175.13 Q 31.459 175.562 32.191 176.282 Q 32.924 177.002 33.343 177.983 Q 33.762 178.965 33.762 180.064 L 33.762 184.906 L 28.396 184.906 L 28.396 180.064 L 10.181 180.064 L 10.181 190.794 L 28.396 190.794 Q 29.496 190.794 30.477 191.213 Q 31.459 191.632 32.191 192.365 Q 32.924 193.097 33.343 194.079 Q 33.762 195.06 33.762 196.159 L 33.762 206.864 Q 33.762 207.963 33.343 208.944 Q 32.924 209.926 32.191 210.659 Q 31.459 211.392 30.477 211.81 Q 29.496 212.229 28.396 212.229 L 9.657 212.229 Q 8.558 212.229 7.577 211.81 Q 6.595 211.392 5.862 210.659 Q 5.13 209.926 4.711 208.944 Q 4.292 207.963 4.292 206.864 L 4.292 202.048 L 9.657 202.048 L 9.657 206.864 L 28.396 206.864 L 28.396 196.159 Z M 66.466 200.923 L 48.015 200.923 L 48.015 207.073 L 66.466 207.073 L 66.466 212.229 L 48.015 212.229 Q 46.968 212.229 46.026 211.823 Q 45.084 211.418 44.39 210.724 Q 43.696 210.031 43.291 209.088 Q 42.885 208.146 42.885 207.073 L 42.885 189.512 Q 42.885 188.439 43.291 187.497 Q 43.696 186.554 44.39 185.861 Q 45.084 185.167 46.026 184.762 Q 46.968 184.356 48.015 184.356 L 61.31 184.356 Q 62.383 184.356 63.325 184.762 Q 64.268 185.167 64.961 185.861 Q 65.655 186.554 66.06 187.497 Q 66.466 188.439 66.466 189.512 Z M 48.015 189.512 L 48.015 195.767 L 61.31 195.767 L 61.31 189.512 Z M 80.182 189.512 L 80.182 212.229 L 75.053 212.229 L 75.053 184.356 L 80.182 184.356 L 80.182 189.276 Q 80.235 188.256 80.654 187.353 Q 81.072 186.45 81.766 185.782 Q 82.459 185.115 83.375 184.735 Q 84.291 184.356 85.338 184.356 L 90.808 184.356 Q 91.881 184.356 92.81 184.762 Q 93.739 185.167 94.446 185.861 Q 95.153 186.554 95.558 187.497 Q 95.964 188.439 95.964 189.512 L 95.964 194.223 L 90.808 194.223 L 90.808 189.512 Z M 110.305 212.229 L 99.156 184.356 L 104.521 184.356 L 112.974 206.052 L 121.454 184.356 L 126.819 184.356 L 115.67 212.229 Z M 155.762 200.923 L 137.311 200.923 L 137.311 207.073 L 155.762 207.073 L 155.762 212.229 L 137.311 212.229 Q 136.264 212.229 135.322 211.823 Q 134.38 211.418 133.686 210.724 Q 132.993 210.031 132.587 209.088 Q 132.181 208.146 132.181 207.073 L 132.181 189.512 Q 132.181 188.439 132.587 187.497 Q 132.993 186.554 133.686 185.861 Q 134.38 185.167 135.322 184.762 Q 136.264 184.356 137.311 184.356 L 150.606 184.356 Q 151.679 184.356 152.621 184.762 Q 153.564 185.167 154.257 185.861 Q 154.951 186.554 155.356 187.497 Q 155.762 188.439 155.762 189.512 Z M 137.311 189.512 L 137.311 195.767 L 150.606 195.767 L 150.606 189.512 Z M 169.47 189.512 L 169.47 212.229 L 164.341 212.229 L 164.341 184.356 L 169.47 184.356 L 169.47 189.276 Q 169.523 188.256 169.941 187.353 Q 170.36 186.45 171.054 185.782 Q 171.747 185.115 172.663 184.735 Q 173.579 184.356 174.626 184.356 L 180.096 184.356 Q 181.169 184.356 182.098 184.762 Q 183.027 185.167 183.734 185.861 Q 184.441 186.554 184.846 187.497 Q 185.252 188.439 185.252 189.512 L 185.252 194.223 L 180.096 194.223 L 180.096 189.512 Z M 208.253 180.064 Q 208.253 178.965 208.672 177.983 Q 209.091 177.002 209.824 176.282 Q 210.556 175.562 211.538 175.13 Q 212.519 174.699 213.619 174.699 L 233.98 174.699 Q 235.079 174.699 236.061 175.13 Q 237.042 175.562 237.775 176.282 Q 238.508 177.002 238.927 177.983 Q 239.346 178.965 239.346 180.064 L 239.346 184.906 L 233.98 184.906 L 233.98 180.064 L 213.619 180.064 L 213.619 206.864 L 233.98 206.864 L 233.98 202.048 L 239.346 202.048 L 239.346 206.864 Q 239.346 207.963 238.927 208.944 Q 238.508 209.926 237.775 210.659 Q 237.042 211.392 236.061 211.81 Q 235.079 212.229 233.98 212.229 L 213.619 212.229 Q 212.519 212.229 211.538 211.81 Q 210.556 211.392 209.824 210.659 Q 209.091 209.926 208.672 208.944 Q 208.253 207.963 208.253 206.864 Z M 271.505 207.073 Q 271.505 208.146 271.099 209.088 Q 270.694 210.031 270 210.724 Q 269.306 211.418 268.377 211.823 Q 267.448 212.229 266.375 212.229 L 252.53 212.229 Q 251.483 212.229 250.541 211.823 Q 249.599 211.418 248.905 210.724 Q 248.212 210.031 247.806 209.088 Q 247.401 208.146 247.401 207.073 L 247.401 189.512 Q 247.401 188.439 247.806 187.497 Q 248.212 186.554 248.905 185.861 Q 249.599 185.167 250.541 184.762 Q 251.483 184.356 252.53 184.356 L 266.375 184.356 Q 267.448 184.356 268.377 184.762 Q 269.306 185.167 270 185.861 Q 270.694 186.554 271.099 187.497 Q 271.505 188.439 271.505 189.512 Z M 252.53 189.512 L 252.53 207.073 L 266.375 207.073 L 266.375 189.512 Z M 304.74 212.229 L 299.585 212.229 L 299.585 189.512 L 285.216 189.512 L 285.216 212.229 L 280.086 212.229 L 280.086 184.356 L 285.216 184.356 L 285.216 189.276 Q 285.269 188.256 285.687 187.353 Q 286.106 186.45 286.8 185.782 Q 287.493 185.115 288.409 184.735 Q 289.325 184.356 290.372 184.356 L 299.585 184.356 Q 300.658 184.356 301.6 184.762 Q 302.542 185.167 303.236 185.861 Q 303.929 186.554 304.335 187.497 Q 304.74 188.439 304.74 189.512 Z M 323.662 178.781 L 323.662 184.356 L 332.822 184.356 L 332.822 189.512 L 323.662 189.512 L 323.662 212.229 L 318.506 212.229 L 318.506 189.512 L 311.701 189.512 L 311.701 184.356 L 318.506 184.356 L 318.506 178.781 Q 318.506 177.708 318.911 176.779 Q 319.317 175.85 320.024 175.143 Q 320.73 174.437 321.672 174.031 Q 322.615 173.625 323.662 173.625 L 332.822 173.625 L 332.822 178.781 Z M 345.224 184.356 L 345.224 212.229 L 340.068 212.229 L 340.068 184.356 Z M 339.806 173.625 L 345.486 173.625 L 345.486 178.991 L 339.806 178.991 Z M 354.072 189.512 Q 354.072 188.439 354.478 187.497 Q 354.883 186.554 355.577 185.861 Q 356.271 185.167 357.213 184.762 Q 358.155 184.356 359.202 184.356 L 368.44 184.356 Q 369.461 184.356 370.377 184.735 Q 371.293 185.115 371.987 185.782 Q 372.68 186.45 373.112 187.353 Q 373.544 188.256 373.57 189.276 L 373.57 184.356 L 378.726 184.356 L 378.726 218.327 Q 378.726 219.4 378.32 220.342 Q 377.915 221.284 377.221 221.978 Q 376.528 222.672 375.585 223.077 Q 374.643 223.483 373.57 223.483 L 357.291 223.483 L 357.291 218.327 L 373.57 218.327 L 373.57 211.156 L 359.202 211.156 Q 358.155 211.156 357.213 210.75 Q 356.271 210.345 355.577 209.651 Q 354.883 208.958 354.478 208.015 Q 354.072 207.073 354.072 206 Z M 373.57 206 L 373.57 189.512 L 359.202 189.512 L 359.202 206 Z M 403.9 174.699 L 431.25 174.699 L 431.25 180.064 L 409.265 180.064 L 409.265 190.794 L 428.031 190.794 L 428.031 196.159 L 409.265 196.159 L 409.265 212.229 L 403.9 212.229 Z M 443.627 184.356 L 443.627 212.229 L 438.472 212.229 L 438.472 184.356 Z M 438.21 173.625 L 443.889 173.625 L 443.889 178.991 L 438.21 178.991 Z M 457.597 173.625 L 457.597 212.229 L 452.467 212.229 L 452.467 173.625 Z M 489.763 200.923 L 471.311 200.923 L 471.311 207.073 L 489.763 207.073 L 489.763 212.229 L 471.311 212.229 Q 470.264 212.229 469.322 211.823 Q 468.38 211.418 467.687 210.724 Q 466.993 210.031 466.587 209.088 Q 466.182 208.146 466.182 207.073 L 466.182 189.512 Q 466.182 188.439 466.587 187.497 Q 466.993 186.554 467.687 185.861 Q 468.38 185.167 469.322 184.762 Q 470.264 184.356 471.311 184.356 L 484.607 184.356 Q 485.68 184.356 486.622 184.762 Q 487.564 185.167 488.258 185.861 Q 488.951 186.554 489.357 187.497 Q 489.763 188.439 489.763 189.512 Z M 471.311 189.512 L 471.311 195.767 L 484.607 195.767 L 484.607 189.512 Z M 514.94 180.064 Q 514.94 178.965 515.359 177.983 Q 515.778 177.002 516.51 176.282 Q 517.243 175.562 518.225 175.13 Q 519.206 174.699 520.305 174.699 L 540.667 174.699 Q 541.766 174.699 542.748 175.13 Q 543.729 175.562 544.462 176.282 Q 545.195 177.002 545.614 177.983 Q 546.032 178.965 546.032 180.064 L 546.032 184.906 L 540.667 184.906 L 540.667 180.064 L 520.305 180.064 L 520.305 206.864 L 540.667 206.864 L 540.667 197.756 L 530.486 197.756 L 530.486 192.391 L 546.032 192.391 L 546.032 206.864 Q 546.032 207.963 545.614 208.944 Q 545.195 209.926 544.462 210.659 Q 543.729 211.392 542.748 211.81 Q 541.766 212.229 540.667 212.229 L 520.305 212.229 Q 519.206 212.229 518.225 211.81 Q 517.243 211.392 516.51 210.659 Q 515.778 209.926 515.359 208.944 Q 514.94 207.963 514.94 206.864 Z M 578.713 200.923 L 560.262 200.923 L 560.262 207.073 L 578.713 207.073 L 578.713 212.229 L 560.262 212.229 Q 559.215 212.229 558.273 211.823 Q 557.331 211.418 556.637 210.724 Q 555.943 210.031 555.538 209.088 Q 555.132 208.146 555.132 207.073 L 555.132 189.512 Q 555.132 188.439 555.538 187.497 Q 555.943 186.554 556.637 185.861 Q 557.331 185.167 558.273 184.762 Q 559.215 184.356 560.262 184.356 L 573.557 184.356 Q 574.63 184.356 575.572 184.762 Q 576.515 185.167 577.208 185.861 Q 577.902 186.554 578.307 187.497 Q 578.713 188.439 578.713 189.512 Z M 560.262 189.512 L 560.262 195.767 L 573.557 195.767 L 573.557 189.512 Z M 611.945 212.229 L 606.79 212.229 L 606.79 189.512 L 592.421 189.512 L 592.421 212.229 L 587.292 212.229 L 587.292 184.356 L 592.421 184.356 L 592.421 189.276 Q 592.474 188.256 592.892 187.353 Q 593.311 186.45 594.005 185.782 Q 594.698 185.115 595.614 184.735 Q 596.53 184.356 597.577 184.356 L 606.79 184.356 Q 607.863 184.356 608.805 184.762 Q 609.747 185.167 610.441 185.861 Q 611.134 186.554 611.54 187.497 Q 611.945 188.439 611.945 189.512 Z M 644.11 200.923 L 625.658 200.923 L 625.658 207.073 L 644.11 207.073 L 644.11 212.229 L 625.658 212.229 Q 624.612 212.229 623.669 211.823 Q 622.727 211.418 622.034 210.724 Q 621.34 210.031 620.934 209.088 Q 620.529 208.146 620.529 207.073 L 620.529 189.512 Q 620.529 188.439 620.934 187.497 Q 621.34 186.554 622.034 185.861 Q 622.727 185.167 623.669 184.762 Q 624.612 184.356 625.658 184.356 L 638.954 184.356 Q 640.027 184.356 640.969 184.762 Q 641.911 185.167 642.605 185.861 Q 643.298 186.554 643.704 187.497 Q 644.11 188.439 644.11 189.512 Z M 625.658 189.512 L 625.658 195.767 L 638.954 195.767 L 638.954 189.512 Z M 657.826 189.512 L 657.826 212.229 L 652.696 212.229 L 652.696 184.356 L 657.826 184.356 L 657.826 189.276 Q 657.878 188.256 658.297 187.353 Q 658.716 186.45 659.409 185.782 Q 660.103 185.115 661.019 184.735 Q 661.935 184.356 662.982 184.356 L 668.452 184.356 Q 669.525 184.356 670.454 184.762 Q 671.383 185.167 672.09 185.861 Q 672.796 186.554 673.202 187.497 Q 673.608 188.439 673.608 189.512 L 673.608 194.223 L 668.452 194.223 L 668.452 189.512 Z M 680.01 200.059 Q 680.01 198.986 680.416 198.057 Q 680.821 197.128 681.515 196.421 Q 682.209 195.715 683.151 195.309 Q 684.093 194.903 685.14 194.903 L 698.435 194.903 L 698.435 189.512 L 681.607 189.512 L 681.607 184.356 L 698.435 184.356 Q 699.508 184.356 700.45 184.762 Q 701.393 185.167 702.086 185.861 Q 702.78 186.554 703.185 187.497 Q 703.591 188.439 703.591 189.512 L 703.591 212.229 L 698.435 212.229 L 698.435 207.518 Q 698.357 208.486 697.912 209.35 Q 697.467 210.214 696.773 210.855 Q 696.08 211.496 695.19 211.863 Q 694.3 212.229 693.305 212.229 L 685.14 212.229 Q 684.093 212.229 683.151 211.823 Q 682.209 211.418 681.515 210.724 Q 680.821 210.031 680.416 209.088 Q 680.01 208.146 680.01 207.073 Z M 685.14 207.073 L 698.435 207.073 L 698.435 200.059 L 685.14 200.059 Z M 710.555 184.356 L 717.36 184.356 L 717.36 175.772 L 722.516 175.772 L 722.516 184.356 L 731.676 184.356 L 731.676 189.512 L 722.516 189.512 L 722.516 207.073 L 731.676 207.073 L 731.676 212.229 L 722.516 212.229 Q 721.469 212.229 720.527 211.823 Q 719.584 211.418 718.878 210.724 Q 718.171 210.031 717.765 209.088 Q 717.36 208.146 717.36 207.073 L 717.36 189.512 L 710.555 189.512 Z M 764.361 207.073 Q 764.361 208.146 763.955 209.088 Q 763.549 210.031 762.856 210.724 Q 762.162 211.418 761.233 211.823 Q 760.304 212.229 759.231 212.229 L 745.386 212.229 Q 744.339 212.229 743.397 211.823 Q 742.455 211.418 741.761 210.724 Q 741.068 210.031 740.662 209.088 Q 740.256 208.146 740.256 207.073 L 740.256 189.512 Q 740.256 188.439 740.662 187.497 Q 741.068 186.554 741.761 185.861 Q 742.455 185.167 743.397 184.762 Q 744.339 184.356 745.386 184.356 L 759.231 184.356 Q 760.304 184.356 761.233 184.762 Q 762.162 185.167 762.856 185.861 Q 763.549 186.554 763.955 187.497 Q 764.361 188.439 764.361 189.512 Z M 745.386 189.512 L 745.386 207.073 L 759.231 207.073 L 759.231 189.512 Z M 778.072 189.512 L 778.072 212.229 L 772.942 212.229 L 772.942 184.356 L 778.072 184.356 L 778.072 189.276 Q 778.124 188.256 778.543 187.353 Q 778.962 186.45 779.656 185.782 Q 780.349 185.115 781.265 184.735 Q 782.181 184.356 783.228 184.356 L 788.698 184.356 Q 789.771 184.356 790.7 184.762 Q 791.629 185.167 792.336 185.861 Q 793.042 186.554 793.448 187.497 Q 793.854 188.439 793.854 189.512 L 793.854 194.223 L 788.698 194.223 L 788.698 189.512 Z" style="white-space: pre;"/>
  </g>
</svg>