<svg xmlns="http://www.w3.org/2000/svg" xmlns:xlink="http://www.w3.org/1999/xlink" version="1.1" x="0px" y="0px" viewBox="0 0 277.9 130.4" xml:space="preserve">
    <polygon points="172.9,0 148.3,0 129.2,0 104.6,0 77.3,84 15.8,84 28,114.5 67.3,114.5 62.2,130.4 114.1,130.4   138.8,36.3 151.3,84 133.7,84 127.2,114.3 159.2,114.3 163.5,130.4 215.4,130.4 210.2,114.5 249.9,114.5 262.1,84 200.2,84 "/>
    <polygon points="196.2,45.6 206.3,76.1 264.7,76.1 277.9,45.6 "/>
    <polygon points="81.7,45.6 0,45.6 13.2,76.1 71.6,76.1 "/>
</svg>